<mxfile host="app.diagrams.net" modified="2024-02-29T03:56:54.092Z" agent="Mozilla/5.0 (Windows NT 10.0; Win64; x64) AppleWebKit/537.36 (KHTML, like Gecko) Chrome/121.0.0.0 Safari/537.36" etag="8FS9iJoIZakhdDJsMaYo" version="23.1.0" type="device">
  <diagram id="C5RBs43oDa-KdzZeNtuy" name="Page-1">
    <mxGraphModel dx="2261" dy="746" grid="1" gridSize="10" guides="1" tooltips="1" connect="1" arrows="1" fold="1" page="1" pageScale="1" pageWidth="827" pageHeight="1169" math="0" shadow="0">
      <root>
        <mxCell id="WIyWlLk6GJQsqaUBKTNV-0" />
        <mxCell id="WIyWlLk6GJQsqaUBKTNV-1" parent="WIyWlLk6GJQsqaUBKTNV-0" />
        <mxCell id="rYkQZGVnF_-kn9Wo8pZ4-0" value="InputGeom" style="swimlane;fontStyle=1;align=center;verticalAlign=top;childLayout=stackLayout;horizontal=1;startSize=26;horizontalStack=0;resizeParent=1;resizeParentMax=0;resizeLast=0;collapsible=1;marginBottom=0;whiteSpace=wrap;html=1;" vertex="1" parent="WIyWlLk6GJQsqaUBKTNV-1">
          <mxGeometry x="-440" y="108.5" width="300" height="216" as="geometry" />
        </mxCell>
        <mxCell id="rYkQZGVnF_-kn9Wo8pZ4-1" value="+ rcChunkyTriMesh* m_chunkyMesh" style="text;strokeColor=none;fillColor=none;align=left;verticalAlign=top;spacingLeft=4;spacingRight=4;overflow=hidden;rotatable=0;points=[[0,0.5],[1,0.5]];portConstraint=eastwest;whiteSpace=wrap;html=1;" vertex="1" parent="rYkQZGVnF_-kn9Wo8pZ4-0">
          <mxGeometry y="26" width="300" height="26" as="geometry" />
        </mxCell>
        <mxCell id="rYkQZGVnF_-kn9Wo8pZ4-2" value="+ rcMeshLoaderObj* m_mesh" style="text;strokeColor=none;fillColor=none;align=left;verticalAlign=top;spacingLeft=4;spacingRight=4;overflow=hidden;rotatable=0;points=[[0,0.5],[1,0.5]];portConstraint=eastwest;whiteSpace=wrap;html=1;" vertex="1" parent="rYkQZGVnF_-kn9Wo8pZ4-0">
          <mxGeometry y="52" width="300" height="26" as="geometry" />
        </mxCell>
        <mxCell id="rYkQZGVnF_-kn9Wo8pZ4-3" value="+ float m_meshBMin[3], float m_meshBMax[3]" style="text;strokeColor=none;fillColor=none;align=left;verticalAlign=top;spacingLeft=4;spacingRight=4;overflow=hidden;rotatable=0;points=[[0,0.5],[1,0.5]];portConstraint=eastwest;whiteSpace=wrap;html=1;" vertex="1" parent="rYkQZGVnF_-kn9Wo8pZ4-0">
          <mxGeometry y="78" width="300" height="26" as="geometry" />
        </mxCell>
        <mxCell id="rYkQZGVnF_-kn9Wo8pZ4-4" value="+ BuildSettings m_buildSettings" style="text;strokeColor=none;fillColor=none;align=left;verticalAlign=top;spacingLeft=4;spacingRight=4;overflow=hidden;rotatable=0;points=[[0,0.5],[1,0.5]];portConstraint=eastwest;whiteSpace=wrap;html=1;" vertex="1" parent="rYkQZGVnF_-kn9Wo8pZ4-0">
          <mxGeometry y="104" width="300" height="26" as="geometry" />
        </mxCell>
        <mxCell id="rYkQZGVnF_-kn9Wo8pZ4-5" value="+ bool m_hasBuildSettings" style="text;strokeColor=none;fillColor=none;align=left;verticalAlign=top;spacingLeft=4;spacingRight=4;overflow=hidden;rotatable=0;points=[[0,0.5],[1,0.5]];portConstraint=eastwest;whiteSpace=wrap;html=1;" vertex="1" parent="rYkQZGVnF_-kn9Wo8pZ4-0">
          <mxGeometry y="130" width="300" height="26" as="geometry" />
        </mxCell>
        <mxCell id="rYkQZGVnF_-kn9Wo8pZ4-6" value="......" style="text;strokeColor=none;fillColor=none;align=left;verticalAlign=top;spacingLeft=4;spacingRight=4;overflow=hidden;rotatable=0;points=[[0,0.5],[1,0.5]];portConstraint=eastwest;whiteSpace=wrap;html=1;" vertex="1" parent="rYkQZGVnF_-kn9Wo8pZ4-0">
          <mxGeometry y="156" width="300" height="26" as="geometry" />
        </mxCell>
        <mxCell id="rYkQZGVnF_-kn9Wo8pZ4-7" value="" style="line;strokeWidth=1;fillColor=none;align=left;verticalAlign=middle;spacingTop=-1;spacingLeft=3;spacingRight=3;rotatable=0;labelPosition=right;points=[];portConstraint=eastwest;strokeColor=inherit;" vertex="1" parent="rYkQZGVnF_-kn9Wo8pZ4-0">
          <mxGeometry y="182" width="300" height="8" as="geometry" />
        </mxCell>
        <mxCell id="rYkQZGVnF_-kn9Wo8pZ4-8" value="+ method(type): type" style="text;strokeColor=none;fillColor=none;align=left;verticalAlign=top;spacingLeft=4;spacingRight=4;overflow=hidden;rotatable=0;points=[[0,0.5],[1,0.5]];portConstraint=eastwest;whiteSpace=wrap;html=1;" vertex="1" parent="rYkQZGVnF_-kn9Wo8pZ4-0">
          <mxGeometry y="190" width="300" height="26" as="geometry" />
        </mxCell>
        <mxCell id="rYkQZGVnF_-kn9Wo8pZ4-9" value="rcMeshLoaderObj" style="swimlane;fontStyle=1;align=center;verticalAlign=top;childLayout=stackLayout;horizontal=1;startSize=26;horizontalStack=0;resizeParent=1;resizeParentMax=0;resizeLast=0;collapsible=1;marginBottom=0;whiteSpace=wrap;html=1;" vertex="1" parent="WIyWlLk6GJQsqaUBKTNV-1">
          <mxGeometry x="-710" y="200" width="160" height="164" as="geometry" />
        </mxCell>
        <mxCell id="rYkQZGVnF_-kn9Wo8pZ4-10" value="+ float* m_verts" style="text;strokeColor=none;fillColor=none;align=left;verticalAlign=top;spacingLeft=4;spacingRight=4;overflow=hidden;rotatable=0;points=[[0,0.5],[1,0.5]];portConstraint=eastwest;whiteSpace=wrap;html=1;" vertex="1" parent="rYkQZGVnF_-kn9Wo8pZ4-9">
          <mxGeometry y="26" width="160" height="26" as="geometry" />
        </mxCell>
        <mxCell id="rYkQZGVnF_-kn9Wo8pZ4-14" value="+ int* m_tris" style="text;strokeColor=none;fillColor=none;align=left;verticalAlign=top;spacingLeft=4;spacingRight=4;overflow=hidden;rotatable=0;points=[[0,0.5],[1,0.5]];portConstraint=eastwest;whiteSpace=wrap;html=1;" vertex="1" parent="rYkQZGVnF_-kn9Wo8pZ4-9">
          <mxGeometry y="52" width="160" height="26" as="geometry" />
        </mxCell>
        <mxCell id="rYkQZGVnF_-kn9Wo8pZ4-15" value="+ float* m_normals" style="text;strokeColor=none;fillColor=none;align=left;verticalAlign=top;spacingLeft=4;spacingRight=4;overflow=hidden;rotatable=0;points=[[0,0.5],[1,0.5]];portConstraint=eastwest;whiteSpace=wrap;html=1;" vertex="1" parent="rYkQZGVnF_-kn9Wo8pZ4-9">
          <mxGeometry y="78" width="160" height="26" as="geometry" />
        </mxCell>
        <mxCell id="rYkQZGVnF_-kn9Wo8pZ4-16" value="......" style="text;strokeColor=none;fillColor=none;align=left;verticalAlign=top;spacingLeft=4;spacingRight=4;overflow=hidden;rotatable=0;points=[[0,0.5],[1,0.5]];portConstraint=eastwest;whiteSpace=wrap;html=1;" vertex="1" parent="rYkQZGVnF_-kn9Wo8pZ4-9">
          <mxGeometry y="104" width="160" height="26" as="geometry" />
        </mxCell>
        <mxCell id="rYkQZGVnF_-kn9Wo8pZ4-11" value="" style="line;strokeWidth=1;fillColor=none;align=left;verticalAlign=middle;spacingTop=-1;spacingLeft=3;spacingRight=3;rotatable=0;labelPosition=right;points=[];portConstraint=eastwest;strokeColor=inherit;" vertex="1" parent="rYkQZGVnF_-kn9Wo8pZ4-9">
          <mxGeometry y="130" width="160" height="8" as="geometry" />
        </mxCell>
        <mxCell id="rYkQZGVnF_-kn9Wo8pZ4-12" value="+ method(type): type" style="text;strokeColor=none;fillColor=none;align=left;verticalAlign=top;spacingLeft=4;spacingRight=4;overflow=hidden;rotatable=0;points=[[0,0.5],[1,0.5]];portConstraint=eastwest;whiteSpace=wrap;html=1;" vertex="1" parent="rYkQZGVnF_-kn9Wo8pZ4-9">
          <mxGeometry y="138" width="160" height="26" as="geometry" />
        </mxCell>
        <mxCell id="rYkQZGVnF_-kn9Wo8pZ4-13" style="edgeStyle=orthogonalEdgeStyle;rounded=0;orthogonalLoop=1;jettySize=auto;html=1;exitX=1;exitY=0.5;exitDx=0;exitDy=0;entryX=0;entryY=0.5;entryDx=0;entryDy=0;endArrow=diamondThin;endFill=1;curved=1;" edge="1" parent="WIyWlLk6GJQsqaUBKTNV-1" source="rYkQZGVnF_-kn9Wo8pZ4-10" target="rYkQZGVnF_-kn9Wo8pZ4-2">
          <mxGeometry relative="1" as="geometry" />
        </mxCell>
        <mxCell id="rYkQZGVnF_-kn9Wo8pZ4-17" value="rcChunkyTriMesh" style="swimlane;fontStyle=1;align=center;verticalAlign=top;childLayout=stackLayout;horizontal=1;startSize=26;horizontalStack=0;resizeParent=1;resizeParentMax=0;resizeLast=0;collapsible=1;marginBottom=0;whiteSpace=wrap;html=1;" vertex="1" parent="WIyWlLk6GJQsqaUBKTNV-1">
          <mxGeometry x="-740" y="60" width="190" height="86" as="geometry" />
        </mxCell>
        <mxCell id="rYkQZGVnF_-kn9Wo8pZ4-18" value="+ rcChunkTriMeshNode* nodes" style="text;strokeColor=none;fillColor=none;align=left;verticalAlign=top;spacingLeft=4;spacingRight=4;overflow=hidden;rotatable=0;points=[[0,0.5],[1,0.5]];portConstraint=eastwest;whiteSpace=wrap;html=1;" vertex="1" parent="rYkQZGVnF_-kn9Wo8pZ4-17">
          <mxGeometry y="26" width="190" height="26" as="geometry" />
        </mxCell>
        <mxCell id="rYkQZGVnF_-kn9Wo8pZ4-19" value="" style="line;strokeWidth=1;fillColor=none;align=left;verticalAlign=middle;spacingTop=-1;spacingLeft=3;spacingRight=3;rotatable=0;labelPosition=right;points=[];portConstraint=eastwest;strokeColor=inherit;" vertex="1" parent="rYkQZGVnF_-kn9Wo8pZ4-17">
          <mxGeometry y="52" width="190" height="8" as="geometry" />
        </mxCell>
        <mxCell id="rYkQZGVnF_-kn9Wo8pZ4-20" value="+ method(type): type" style="text;strokeColor=none;fillColor=none;align=left;verticalAlign=top;spacingLeft=4;spacingRight=4;overflow=hidden;rotatable=0;points=[[0,0.5],[1,0.5]];portConstraint=eastwest;whiteSpace=wrap;html=1;" vertex="1" parent="rYkQZGVnF_-kn9Wo8pZ4-17">
          <mxGeometry y="60" width="190" height="26" as="geometry" />
        </mxCell>
        <mxCell id="rYkQZGVnF_-kn9Wo8pZ4-21" style="edgeStyle=orthogonalEdgeStyle;rounded=0;orthogonalLoop=1;jettySize=auto;html=1;entryX=0;entryY=0.5;entryDx=0;entryDy=0;endArrow=diamondThin;endFill=1;curved=1;" edge="1" parent="WIyWlLk6GJQsqaUBKTNV-1" source="rYkQZGVnF_-kn9Wo8pZ4-18" target="rYkQZGVnF_-kn9Wo8pZ4-1">
          <mxGeometry relative="1" as="geometry" />
        </mxCell>
        <mxCell id="rYkQZGVnF_-kn9Wo8pZ4-22" value="vertex最大值和最小值" style="edgeStyle=orthogonalEdgeStyle;rounded=0;orthogonalLoop=1;jettySize=auto;html=1;entryX=0.5;entryY=0;entryDx=0;entryDy=0;fillColor=#f8cecc;strokeColor=#FF0000;fontColor=#FF0000;" edge="1" parent="WIyWlLk6GJQsqaUBKTNV-1" source="rYkQZGVnF_-kn9Wo8pZ4-3" target="rYkQZGVnF_-kn9Wo8pZ4-9">
          <mxGeometry x="0.6514" y="-10" relative="1" as="geometry">
            <Array as="points">
              <mxPoint x="-520" y="200" />
              <mxPoint x="-520" y="180" />
              <mxPoint x="-630" y="180" />
            </Array>
            <mxPoint as="offset" />
          </mxGeometry>
        </mxCell>
      </root>
    </mxGraphModel>
  </diagram>
</mxfile>
